<?xml version="1.0" standalone="no"?>
<!DOCTYPE svg PUBLIC "-//W3C//DTD SVG 20010904//EN"
 "http://www.w3.org/TR/2001/REC-SVG-20010904/DTD/svg10.dtd">
<svg version="1.0" xmlns="http://www.w3.org/2000/svg"
 width="256.000000pt" height="256.000000pt" viewBox="0 0 256.000000 256.000000"
 preserveAspectRatio="xMidYMid meet">

<g transform="translate(0.000000,256.000000) scale(0.100000,-0.100000)"
fill="#000000" stroke="none">
<path d="M0 1280 l0 -1280 1280 0 1280 0 0 1280 0 1280 -1280 0 -1280 0 0
-1280z m1837 1064 c8 -22 -18 -37 -36 -20 -7 8 -10 19 -7 25 10 16 36 13 43
-5z m-727 -74 c103 -38 116 -45 161 -85 20 -18 41 -34 46 -36 6 -2 35 -55 66
-117 l55 -113 89 -44 c116 -58 216 -117 217 -130 1 -5 -13 -11 -30 -13 -22 -2
-45 7 -85 34 -30 21 -93 57 -142 81 l-87 44 -54 107 c-65 129 -106 168 -234
218 -86 35 -88 35 -155 24 -38 -7 -65 -16 -60 -21 4 -4 37 -18 72 -31 51 -18
69 -31 94 -66 31 -42 31 -42 10 -57 -22 -16 -73 -96 -73 -115 0 -9 20 -10 76
-5 42 4 107 4 145 0 64 -7 70 -9 67 -29 -3 -20 -10 -21 -123 -27 -110 -6 -127
-9 -202 -43 -45 -20 -88 -36 -95 -36 -8 0 -23 -6 -34 -14 -16 -12 30 -15 361
-18 329 -3 385 -6 418 -20 20 -9 37 -19 37 -22 0 -4 -239 -6 -531 -6 -412 0
-530 3 -527 12 3 7 77 48 165 93 l161 80 26 75 c42 120 44 116 -94 183 -66 31
-120 61 -120 66 0 9 216 57 266 60 16 0 68 -13 114 -29z m540 -19 c0 -20 -25
-35 -41 -25 -13 8 9 44 26 44 8 0 15 -9 15 -19z m370 4 c10 -13 11 -18 1 -28
-10 -9 -15 -8 -26 7 -23 31 1 50 25 21z m-123 -20 c47 -28 83 -85 83 -134 0
-66 -46 -132 -107 -152 -29 -9 -33 -15 -33 -45 0 -30 -3 -34 -25 -34 -22 0
-25 4 -25 34 0 26 -5 36 -21 41 -12 4 -39 23 -60 42 -144 130 20 346 188 248z
m181 -133 c3 -17 -2 -22 -17 -22 -14 0 -21 6 -21 18 0 38 33 41 38 4z m-480 1
c5 -17 -26 -29 -40 -15 -6 6 -7 15 -3 22 9 14 37 9 43 -7z m-465 -70 c-7 -2
-19 -2 -25 0 -7 3 -2 5 12 5 14 0 19 -2 13 -5z m515 -73 c10 -17 10 -21 -2
-26 -21 -8 -36 3 -36 27 0 25 22 24 38 -1z m386 11 c10 -15 -20 -45 -38 -38
-14 5 -15 11 -6 27 11 20 35 27 44 11z m-164 -171 c0 -17 -7 -20 -50 -20 -43
0 -50 3 -50 20 0 17 7 20 50 20 43 0 50 -3 50 -20z m-32 -363 l2 -277 -25 0
-25 0 0 273 c0 151 3 277 7 281 4 4 14 5 23 4 13 -3 15 -40 18 -281z m-353
221 c-9 -40 -42 -78 -67 -78 -20 0 -38 -36 -38 -75 0 -33 -90 -129 -141 -149
-61 -25 -109 -8 -182 63 -52 50 -60 63 -64 104 -5 42 -10 49 -37 61 -37 15
-51 31 -60 69 -6 23 -3 27 16 27 14 0 27 -9 33 -22 15 -34 45 -36 45 -4 0 19
5 26 20 26 25 0 27 -5 35 -104 7 -76 9 -81 51 -127 25 -26 56 -50 69 -53 63
-16 149 64 175 162 14 50 18 57 49 64 24 7 36 18 44 39 8 21 18 29 35 29 21 0
23 -3 17 -32z m-551 -144 c8 -20 -1 -34 -21 -34 -10 0 0 -16 29 -48 40 -42 45
-55 56 -122 10 -64 56 -303 153 -807 10 -57 24 -115 31 -130 l11 -28 13 45 c8
25 30 136 48 245 19 110 58 322 87 470 l52 270 43 51 44 51 -25 11 c-17 8 -23
17 -18 27 5 14 16 15 72 9 36 -3 68 -8 70 -10 2 -2 -24 -33 -58 -69 -62 -67
-72 -85 -46 -85 7 0 75 -28 148 -62 128 -59 134 -63 125 -84 l-10 -22 -77 35
c-105 50 -221 97 -225 92 -4 -6 -125 -615 -132 -669 -6 -45 -6 -45 56 55 68
109 235 336 294 400 32 34 34 35 15 7 -14 -19 -23 -46 -22 -67 1 -26 -7 -43
-31 -69 -56 -58 -260 -365 -313 -471 -14 -27 -42 -97 -62 -154 -20 -56 -40
-103 -46 -103 -5 0 -31 53 -56 119 -81 206 -243 453 -497 756 -40 49 -72 90
-70 92 9 9 335 145 347 145 7 0 -19 36 -58 79 l-72 80 33 4 c77 9 106 7 112
-9z m223 -262 l31 -23 50 35 c27 20 53 36 57 36 4 0 5 -19 2 -42 -6 -42 -21
-61 -84 -105 -21 -14 -25 -14 -45 0 -67 45 -89 72 -95 116 l-6 43 29 -18 c16
-10 43 -29 61 -42z m753 -165 c14 -7 26 -20 28 -30 3 -15 -6 -17 -81 -17 -68
0 -86 -3 -91 -16 -11 -28 4 -34 85 -34 65 0 81 -3 86 -16 11 -29 -25 -44 -103
-44 -94 0 -116 16 -116 85 0 67 23 85 106 85 33 0 72 -6 86 -13z m-701 -214
c0 -292 -17 -366 -39 -177 -5 49 -10 155 -10 237 l0 147 25 0 25 0 -1 -207z
m629 -335 c-3 -265 -4 -273 -23 -273 -19 0 -20 8 -23 273 l-2 272 25 0 25 0
-2 -272z"/>
<path d="M1740 2181 c-33 -33 -45 -69 -36 -107 4 -15 20 -39 36 -55 23 -24 37
-29 75 -29 40 0 52 5 81 34 48 48 48 100 0 150 -29 31 -39 36 -80 36 -39 0
-53 -5 -76 -29z m118 -37 c22 -15 30 -57 14 -80 -34 -52 -122 -29 -122 32 0
53 62 81 108 48z"/>
<path d="M900 1298 c-14 -6 -71 -31 -128 -56 -56 -25 -105 -49 -108 -53 -3 -5
12 -28 34 -51 83 -93 276 -355 347 -474 19 -32 35 -53 35 -48 0 6 -22 120 -49
254 -27 135 -57 289 -67 343 -10 53 -23 97 -29 96 -5 0 -21 -5 -35 -11z"/>
</g>
</svg>
